<?xml version="1.0" encoding="UTF-8" standalone="no"?>
<svg
   xmlns:dc="http://purl.org/dc/elements/1.1/"
   xmlns:cc="http://creativecommons.org/ns#"
   xmlns:rdf="http://www.w3.org/1999/02/22-rdf-syntax-ns#"
   xmlns:svg="http://www.w3.org/2000/svg"
   xmlns="http://www.w3.org/2000/svg"
   height="24px"
   viewBox="0 0 24 24"
   width="24px"
   fill="#000000"
   version="1.1"
   id="svg74">
  <metadata
     id="metadata80">
    <rdf:RDF>
      <cc:Work
         rdf:about="">
        <dc:format>image/svg+xml</dc:format>
        <dc:type
           rdf:resource="http://purl.org/dc/dcmitype/StillImage" />
        <dc:title></dc:title>
      </cc:Work>
    </rdf:RDF>
  </metadata>
  <defs
     id="defs78" />
  <path
     d="M 0,0 H 24 V 24 H 0 Z"
     fill="none"
     id="path68"
     style="opacity:0" />
  <path
     d="M 13,4 H 6 V 20 H 18 V 9 Z"
     opacity="1"
     id="path70"
     style="fill:#ffe680;opacity:1" />
  <path
     d="m 9,16 h 6 a 1,1 45 0 1 1,1 1,1 135 0 1 -1,1 H 9 A 1,1 45 0 1 8,17 1,1 135 0 1 9,16 Z m 0,-4 h 6 a 1,1 45 0 1 1,1 1,1 135 0 1 -1,1 H 9 A 1,1 45 0 1 8,13 1,1 135 0 1 9,12 Z M 14,2 H 6 C 4.9,2 4,2.9 4,4 v 16 c 0,1.1 0.89,2 1.99,2 H 18 c 1.1,0 2,-0.9 2,-2 V 8 Z m 3,18 H 7 A 1,1 45 0 1 6,19 V 5 A 1,1 135 0 1 7,4 h 6 v 3 a 2,2 45 0 0 2,2 h 3 v 10 a 1,1 135 0 1 -1,1 z"
     id="path72"
     style="fill:#ffa500;fill-opacity:1" />
</svg>
